<mxfile host="app.diagrams.net" modified="2023-08-23T19:50:28.537Z" agent="Mozilla/5.0 (X11; Linux x86_64) AppleWebKit/537.36 (KHTML, like Gecko) Chrome/116.0.0.0 Safari/537.36" etag="e8bqq6sPkVeTCyj2TSMB" version="21.6.9" type="device">
  <diagram id="cfZ9pdTI_8xViSj4E6wb" name="Page-1">
    <mxGraphModel dx="2034" dy="1150" grid="1" gridSize="10" guides="1" tooltips="1" connect="1" arrows="1" fold="1" page="0" pageScale="1" pageWidth="827" pageHeight="1169" math="0" shadow="0">
      <root>
        <mxCell id="0" />
        <mxCell id="1" parent="0" />
        <mxCell id="qOO70KsoDbuKheBEqoZG-1" value="Q" style="whiteSpace=wrap;html=1;aspect=fixed;fontSize=17;fontFamily=Verdana;fontStyle=1;fontColor=#CCCCCC;fillColor=#333333;rounded=1;strokeColor=#1A1A1A;" parent="1" vertex="1">
          <mxGeometry x="150" y="110" width="40" height="40" as="geometry" />
        </mxCell>
        <mxCell id="qOO70KsoDbuKheBEqoZG-2" value="W" style="whiteSpace=wrap;html=1;aspect=fixed;fontSize=17;fontFamily=Verdana;fontStyle=1;fontColor=#CCCCCC;fillColor=#333333;rounded=1;strokeColor=#1A1A1A;" parent="1" vertex="1">
          <mxGeometry x="190" y="85" width="40" height="40" as="geometry" />
        </mxCell>
        <mxCell id="qOO70KsoDbuKheBEqoZG-3" value="E" style="whiteSpace=wrap;html=1;aspect=fixed;fontSize=17;fontFamily=Verdana;fontStyle=1;fontColor=#CCCCCC;fillColor=#333333;rounded=1;strokeColor=#1A1A1A;" parent="1" vertex="1">
          <mxGeometry x="230" y="70" width="40" height="40" as="geometry" />
        </mxCell>
        <mxCell id="qOO70KsoDbuKheBEqoZG-4" value="R" style="whiteSpace=wrap;html=1;aspect=fixed;fontSize=17;fontFamily=Verdana;fontStyle=1;fontColor=#CCCCCC;fillColor=#333333;rounded=1;strokeColor=#1A1A1A;" parent="1" vertex="1">
          <mxGeometry x="270" y="85" width="40" height="40" as="geometry" />
        </mxCell>
        <mxCell id="qOO70KsoDbuKheBEqoZG-5" value="T" style="whiteSpace=wrap;html=1;aspect=fixed;fontSize=17;fontFamily=Verdana;fontStyle=1;fontColor=#CCCCCC;fillColor=#333333;rounded=1;strokeColor=#1A1A1A;" parent="1" vertex="1">
          <mxGeometry x="310" y="93" width="40" height="40" as="geometry" />
        </mxCell>
        <mxCell id="qOO70KsoDbuKheBEqoZG-6" value="A" style="whiteSpace=wrap;html=1;aspect=fixed;fontSize=17;fontFamily=Verdana;fontStyle=1;fontColor=#CCCCCC;fillColor=#333333;rounded=1;strokeColor=#1A1A1A;" parent="1" vertex="1">
          <mxGeometry x="150" y="150" width="40" height="40" as="geometry" />
        </mxCell>
        <mxCell id="qOO70KsoDbuKheBEqoZG-7" value="S" style="whiteSpace=wrap;html=1;aspect=fixed;fontSize=17;fontFamily=Verdana;fontStyle=1;fontColor=#CCCCCC;fillColor=#333333;rounded=1;strokeColor=#1A1A1A;" parent="1" vertex="1">
          <mxGeometry x="190" y="125" width="40" height="40" as="geometry" />
        </mxCell>
        <mxCell id="qOO70KsoDbuKheBEqoZG-8" value="D" style="whiteSpace=wrap;html=1;aspect=fixed;fontSize=17;fontFamily=Verdana;fontStyle=1;fontColor=#CCCCCC;fillColor=#333333;rounded=1;strokeColor=#1A1A1A;" parent="1" vertex="1">
          <mxGeometry x="230" y="110" width="40" height="40" as="geometry" />
        </mxCell>
        <mxCell id="qOO70KsoDbuKheBEqoZG-9" value="F" style="whiteSpace=wrap;html=1;aspect=fixed;fontSize=17;fontFamily=Verdana;fontStyle=1;fontColor=#CCCCCC;fillColor=#333333;rounded=1;strokeColor=#1A1A1A;" parent="1" vertex="1">
          <mxGeometry x="270" y="125" width="40" height="40" as="geometry" />
        </mxCell>
        <mxCell id="qOO70KsoDbuKheBEqoZG-10" value="G" style="whiteSpace=wrap;html=1;aspect=fixed;fontSize=17;fontFamily=Verdana;fontStyle=1;fontColor=#CCCCCC;fillColor=#333333;rounded=1;strokeColor=#1A1A1A;" parent="1" vertex="1">
          <mxGeometry x="310" y="133" width="40" height="40" as="geometry" />
        </mxCell>
        <mxCell id="qOO70KsoDbuKheBEqoZG-11" value="Z" style="whiteSpace=wrap;html=1;aspect=fixed;fontSize=17;fontFamily=Verdana;fontStyle=1;fontColor=#CCCCCC;fillColor=#333333;rounded=1;strokeColor=#1A1A1A;" parent="1" vertex="1">
          <mxGeometry x="150" y="190" width="40" height="40" as="geometry" />
        </mxCell>
        <mxCell id="qOO70KsoDbuKheBEqoZG-12" value="X" style="whiteSpace=wrap;html=1;aspect=fixed;fontSize=17;fontFamily=Verdana;fontStyle=1;fontColor=#CCCCCC;fillColor=#333333;rounded=1;strokeColor=#1A1A1A;" parent="1" vertex="1">
          <mxGeometry x="190" y="165" width="40" height="40" as="geometry" />
        </mxCell>
        <mxCell id="qOO70KsoDbuKheBEqoZG-13" value="C" style="whiteSpace=wrap;html=1;aspect=fixed;fontSize=17;fontFamily=Verdana;fontStyle=1;fontColor=#CCCCCC;fillColor=#333333;rounded=1;strokeColor=#1A1A1A;" parent="1" vertex="1">
          <mxGeometry x="230" y="150" width="40" height="40" as="geometry" />
        </mxCell>
        <mxCell id="qOO70KsoDbuKheBEqoZG-14" value="V" style="whiteSpace=wrap;html=1;aspect=fixed;fontSize=17;fontFamily=Verdana;fontStyle=1;fontColor=#CCCCCC;fillColor=#333333;rounded=1;strokeColor=#1A1A1A;" parent="1" vertex="1">
          <mxGeometry x="270" y="165" width="40" height="40" as="geometry" />
        </mxCell>
        <mxCell id="qOO70KsoDbuKheBEqoZG-15" value="B" style="whiteSpace=wrap;html=1;aspect=fixed;fontSize=17;fontFamily=Verdana;fontStyle=1;fontColor=#CCCCCC;fillColor=#333333;rounded=1;strokeColor=#1A1A1A;" parent="1" vertex="1">
          <mxGeometry x="310" y="173" width="40" height="40" as="geometry" />
        </mxCell>
        <mxCell id="qOO70KsoDbuKheBEqoZG-16" value="," style="whiteSpace=wrap;html=1;aspect=fixed;rotation=15;fontSize=17;fontFamily=Verdana;fontStyle=1;fillColor=#333333;strokeColor=#1A1A1A;fontColor=#CCCCCC;rounded=1;" parent="1" vertex="1">
          <mxGeometry x="290" y="219" width="40" height="40" as="geometry" />
        </mxCell>
        <mxCell id="qOO70KsoDbuKheBEqoZG-17" value="." style="whiteSpace=wrap;html=1;aspect=fixed;rotation=30;fontSize=12;fontFamily=Verdana;fontStyle=1;fontColor=#CCCCCC;fillColor=#333333;rounded=1;strokeColor=#1A1A1A;" parent="1" vertex="1">
          <mxGeometry x="338" y="237" width="40" height="40" as="geometry" />
        </mxCell>
        <mxCell id="qOO70KsoDbuKheBEqoZG-18" value="Y" style="whiteSpace=wrap;html=1;aspect=fixed;fontSize=17;fontFamily=Verdana;fontStyle=1;fontColor=#CCCCCC;fillColor=#333333;rounded=1;strokeColor=#1A1A1A;" parent="1" vertex="1">
          <mxGeometry x="478" y="93" width="40" height="40" as="geometry" />
        </mxCell>
        <mxCell id="qOO70KsoDbuKheBEqoZG-19" value="U" style="whiteSpace=wrap;html=1;aspect=fixed;fontSize=17;fontFamily=Verdana;fontStyle=1;fontColor=#CCCCCC;fillColor=#333333;rounded=1;strokeColor=#1A1A1A;" parent="1" vertex="1">
          <mxGeometry x="518" y="85" width="40" height="40" as="geometry" />
        </mxCell>
        <mxCell id="qOO70KsoDbuKheBEqoZG-20" value="I" style="whiteSpace=wrap;html=1;aspect=fixed;fontSize=17;fontFamily=Verdana;fontStyle=1;fontColor=#CCCCCC;fillColor=#333333;rounded=1;strokeColor=#1A1A1A;" parent="1" vertex="1">
          <mxGeometry x="558" y="70" width="40" height="40" as="geometry" />
        </mxCell>
        <mxCell id="qOO70KsoDbuKheBEqoZG-21" value="O" style="whiteSpace=wrap;html=1;aspect=fixed;fontSize=17;fontFamily=Verdana;fontStyle=1;fontColor=#CCCCCC;fillColor=#333333;rounded=1;strokeColor=#1A1A1A;" parent="1" vertex="1">
          <mxGeometry x="598" y="85" width="40" height="40" as="geometry" />
        </mxCell>
        <mxCell id="qOO70KsoDbuKheBEqoZG-22" value="P" style="whiteSpace=wrap;html=1;aspect=fixed;fontSize=17;fontFamily=Verdana;fontStyle=1;fontColor=#CCCCCC;fillColor=#333333;rounded=1;strokeColor=#1A1A1A;" parent="1" vertex="1">
          <mxGeometry x="638" y="110" width="40" height="40" as="geometry" />
        </mxCell>
        <mxCell id="qOO70KsoDbuKheBEqoZG-23" value="H" style="whiteSpace=wrap;html=1;aspect=fixed;fontSize=17;fontFamily=Verdana;fontStyle=1;fontColor=#CCCCCC;fillColor=#333333;rounded=1;strokeColor=#1A1A1A;" parent="1" vertex="1">
          <mxGeometry x="478" y="133" width="40" height="40" as="geometry" />
        </mxCell>
        <mxCell id="qOO70KsoDbuKheBEqoZG-24" value="J" style="whiteSpace=wrap;html=1;aspect=fixed;fontSize=17;fontFamily=Verdana;fontStyle=1;fontColor=#CCCCCC;fillColor=#333333;rounded=1;strokeColor=#1A1A1A;" parent="1" vertex="1">
          <mxGeometry x="518" y="125" width="40" height="40" as="geometry" />
        </mxCell>
        <mxCell id="qOO70KsoDbuKheBEqoZG-25" value="K" style="whiteSpace=wrap;html=1;aspect=fixed;fontSize=17;fontFamily=Verdana;fontStyle=1;fontColor=#CCCCCC;fillColor=#333333;rounded=1;strokeColor=#1A1A1A;" parent="1" vertex="1">
          <mxGeometry x="558" y="110" width="40" height="40" as="geometry" />
        </mxCell>
        <mxCell id="qOO70KsoDbuKheBEqoZG-26" value="L" style="whiteSpace=wrap;html=1;aspect=fixed;fontSize=17;fontFamily=Verdana;fontStyle=1;fontColor=#CCCCCC;fillColor=#333333;rounded=1;strokeColor=#1A1A1A;" parent="1" vertex="1">
          <mxGeometry x="598" y="125" width="40" height="40" as="geometry" />
        </mxCell>
        <mxCell id="qOO70KsoDbuKheBEqoZG-27" value="Å" style="whiteSpace=wrap;html=1;aspect=fixed;fontSize=17;fontFamily=Verdana;fontStyle=1;fontColor=#CCCCCC;fillColor=#333333;rounded=1;strokeColor=#1A1A1A;" parent="1" vertex="1">
          <mxGeometry x="638" y="150" width="40" height="40" as="geometry" />
        </mxCell>
        <mxCell id="qOO70KsoDbuKheBEqoZG-28" value="N" style="whiteSpace=wrap;html=1;aspect=fixed;fontSize=17;fontFamily=Verdana;fontStyle=1;fontColor=#CCCCCC;fillColor=#333333;rounded=1;strokeColor=#1A1A1A;" parent="1" vertex="1">
          <mxGeometry x="478" y="173" width="40" height="40" as="geometry" />
        </mxCell>
        <mxCell id="qOO70KsoDbuKheBEqoZG-29" value="M" style="whiteSpace=wrap;html=1;aspect=fixed;fontSize=17;fontFamily=Verdana;fontStyle=1;fontColor=#CCCCCC;fillColor=#333333;rounded=1;strokeColor=#1A1A1A;" parent="1" vertex="1">
          <mxGeometry x="518" y="165" width="40" height="40" as="geometry" />
        </mxCell>
        <mxCell id="qOO70KsoDbuKheBEqoZG-30" value="Æ" style="whiteSpace=wrap;html=1;aspect=fixed;fontSize=17;fontFamily=Verdana;fontStyle=1;fontColor=#CCCCCC;fillColor=#333333;rounded=1;strokeColor=#1A1A1A;" parent="1" vertex="1">
          <mxGeometry x="558" y="150" width="40" height="40" as="geometry" />
        </mxCell>
        <mxCell id="qOO70KsoDbuKheBEqoZG-31" value="Ø" style="whiteSpace=wrap;html=1;aspect=fixed;fontSize=17;fontFamily=Verdana;fontStyle=1;fontColor=#CCCCCC;fillColor=#333333;rounded=1;strokeColor=#1A1A1A;" parent="1" vertex="1">
          <mxGeometry x="598" y="165" width="40" height="40" as="geometry" />
        </mxCell>
        <mxCell id="qOO70KsoDbuKheBEqoZG-32" value="ENTER" style="whiteSpace=wrap;html=1;aspect=fixed;fontSize=10;fontFamily=Verdana;fontStyle=1;fontColor=#CCCCCC;fillColor=#333333;rounded=1;strokeColor=#1A1A1A;" parent="1" vertex="1">
          <mxGeometry x="638" y="190" width="40" height="40" as="geometry" />
        </mxCell>
        <mxCell id="qOO70KsoDbuKheBEqoZG-33" value="Spc" style="whiteSpace=wrap;html=1;aspect=fixed;rotation=-30;fontSize=17;fontFamily=Verdana;fontStyle=1;fontColor=#CCCCCC;fillColor=#333333;rounded=1;strokeColor=#1A1A1A;" parent="1" vertex="1">
          <mxGeometry x="450" y="237" width="40" height="40" as="geometry" />
        </mxCell>
        <mxCell id="qOO70KsoDbuKheBEqoZG-34" value="Bspc" style="whiteSpace=wrap;html=1;aspect=fixed;rotation=-15;fontSize=17;fontFamily=Verdana;fontStyle=1;fillColor=#333333;strokeColor=#1A1A1A;fontColor=#CCCCCC;rounded=1;" parent="1" vertex="1">
          <mxGeometry x="498" y="219" width="40" height="40" as="geometry" />
        </mxCell>
        <mxCell id="qOO70KsoDbuKheBEqoZG-35" value="&lt;b&gt;Base&lt;/b&gt;" style="rounded=0;whiteSpace=wrap;html=1;fontFamily=Verdana;fontSize=17;fontColor=#CCCCCC;fillColor=#333333;strokeColor=#1A1A1A;" parent="1" vertex="1">
          <mxGeometry x="308.5" y="40" width="210" height="30" as="geometry" />
        </mxCell>
        <mxCell id="qOO70KsoDbuKheBEqoZG-235" style="edgeStyle=orthogonalEdgeStyle;rounded=1;orthogonalLoop=1;jettySize=auto;html=1;exitX=0.5;exitY=1;exitDx=0;exitDy=0;fontFamily=Verdana;fontSize=14;fontColor=#CCCCCC;strokeColor=#1A1A1A;" parent="1" edge="1">
          <mxGeometry relative="1" as="geometry">
            <mxPoint x="779.9999999999998" y="600" as="sourcePoint" />
            <mxPoint x="779.9999999999998" y="600" as="targetPoint" />
          </mxGeometry>
        </mxCell>
        <mxCell id="-LXJKEoiE8uKDlhNojhN-36" value="RESET" style="whiteSpace=wrap;html=1;aspect=fixed;fontSize=9;fontFamily=Verdana;fontStyle=1;fontColor=#CCCCCC;fillColor=#333333;rounded=1;strokeColor=#1A1A1A;" parent="1" vertex="1">
          <mxGeometry x="720" y="670" width="40" height="40" as="geometry" />
        </mxCell>
        <mxCell id="-LXJKEoiE8uKDlhNojhN-37" value="" style="whiteSpace=wrap;html=1;aspect=fixed;fontSize=17;fontFamily=Verdana;fontStyle=1;fontColor=#CCCCCC;fillColor=#333333;rounded=1;strokeColor=#1A1A1A;" parent="1" vertex="1">
          <mxGeometry x="760" y="645" width="40" height="40" as="geometry" />
        </mxCell>
        <mxCell id="-LXJKEoiE8uKDlhNojhN-38" value="" style="whiteSpace=wrap;html=1;aspect=fixed;fontSize=17;fontFamily=Verdana;fontStyle=1;fontColor=#CCCCCC;fillColor=#333333;rounded=1;strokeColor=#1A1A1A;" parent="1" vertex="1">
          <mxGeometry x="800" y="630" width="40" height="40" as="geometry" />
        </mxCell>
        <mxCell id="-LXJKEoiE8uKDlhNojhN-41" value="&lt;div style=&quot;font-size: 7px;&quot;&gt;BOOT&lt;/div&gt;&lt;div style=&quot;font-size: 7px;&quot;&gt;LOADER&lt;br style=&quot;font-size: 7px;&quot;&gt;&lt;/div&gt;" style="whiteSpace=wrap;html=1;aspect=fixed;fontSize=7;fontFamily=Verdana;fontStyle=1;fontColor=#CCCCCC;fillColor=#333333;rounded=1;strokeColor=#1A1A1A;" parent="1" vertex="1">
          <mxGeometry x="720" y="710" width="40" height="40" as="geometry" />
        </mxCell>
        <mxCell id="-LXJKEoiE8uKDlhNojhN-42" value="" style="whiteSpace=wrap;html=1;aspect=fixed;fontSize=17;fontFamily=Verdana;fontStyle=1;fontColor=#CCCCCC;fillColor=#333333;rounded=1;strokeColor=#1A1A1A;" parent="1" vertex="1">
          <mxGeometry x="760" y="685" width="40" height="40" as="geometry" />
        </mxCell>
        <mxCell id="-LXJKEoiE8uKDlhNojhN-43" value="" style="whiteSpace=wrap;html=1;aspect=fixed;fontSize=17;fontFamily=Verdana;fontStyle=1;fontColor=#CCCCCC;fillColor=#333333;rounded=1;strokeColor=#1A1A1A;" parent="1" vertex="1">
          <mxGeometry x="800" y="670" width="40" height="40" as="geometry" />
        </mxCell>
        <mxCell id="-LXJKEoiE8uKDlhNojhN-44" value="" style="whiteSpace=wrap;html=1;aspect=fixed;fontSize=17;fontFamily=Verdana;fontStyle=1;fontColor=#CCCCCC;fillColor=#333333;rounded=1;strokeColor=#1A1A1A;" parent="1" vertex="1">
          <mxGeometry x="840" y="685" width="40" height="40" as="geometry" />
        </mxCell>
        <mxCell id="-LXJKEoiE8uKDlhNojhN-46" value="" style="whiteSpace=wrap;html=1;aspect=fixed;fontSize=17;fontFamily=Verdana;fontStyle=1;fontColor=#CCCCCC;fillColor=#333333;rounded=1;strokeColor=#1A1A1A;" parent="1" vertex="1">
          <mxGeometry x="720" y="750" width="40" height="40" as="geometry" />
        </mxCell>
        <mxCell id="-LXJKEoiE8uKDlhNojhN-47" value="" style="whiteSpace=wrap;html=1;aspect=fixed;fontSize=17;fontFamily=Verdana;fontStyle=1;fontColor=#CCCCCC;fillColor=#333333;rounded=1;strokeColor=#1A1A1A;" parent="1" vertex="1">
          <mxGeometry x="760" y="725" width="40" height="40" as="geometry" />
        </mxCell>
        <mxCell id="-LXJKEoiE8uKDlhNojhN-48" value="" style="whiteSpace=wrap;html=1;aspect=fixed;fontSize=17;fontFamily=Verdana;fontStyle=1;fontColor=#CCCCCC;fillColor=#333333;rounded=1;strokeColor=#1A1A1A;" parent="1" vertex="1">
          <mxGeometry x="800" y="710" width="40" height="40" as="geometry" />
        </mxCell>
        <mxCell id="-LXJKEoiE8uKDlhNojhN-49" value="&lt;div style=&quot;font-size: 13px;&quot;&gt;BT&lt;/div&gt;&lt;div style=&quot;font-size: 13px;&quot;&gt;CLR&lt;br style=&quot;font-size: 13px;&quot;&gt;&lt;/div&gt;" style="whiteSpace=wrap;html=1;aspect=fixed;fontSize=13;fontFamily=Verdana;fontStyle=1;fontColor=#CCCCCC;fillColor=#333333;rounded=1;strokeColor=#1A1A1A;" parent="1" vertex="1">
          <mxGeometry x="840" y="725" width="40" height="40" as="geometry" />
        </mxCell>
        <mxCell id="-LXJKEoiE8uKDlhNojhN-51" value="" style="whiteSpace=wrap;html=1;aspect=fixed;rotation=15;fontSize=17;fontFamily=Verdana;fontStyle=1;fontColor=#CCCCCC;fillColor=#333333;rounded=1;strokeColor=#1A1A1A;" parent="1" vertex="1">
          <mxGeometry x="860" y="779" width="40" height="40" as="geometry" />
        </mxCell>
        <mxCell id="-LXJKEoiE8uKDlhNojhN-52" value="" style="whiteSpace=wrap;html=1;aspect=fixed;rotation=30;fontSize=17;fontFamily=Verdana;fontStyle=1;fontColor=#CCCCCC;fillColor=#333333;rounded=1;strokeColor=#1A1A1A;" parent="1" vertex="1">
          <mxGeometry x="908" y="797" width="40" height="40" as="geometry" />
        </mxCell>
        <mxCell id="-LXJKEoiE8uKDlhNojhN-54" value="" style="whiteSpace=wrap;html=1;aspect=fixed;fontSize=17;fontFamily=Verdana;fontStyle=1;fontColor=#CCCCCC;fillColor=#333333;rounded=1;strokeColor=#1A1A1A;" parent="1" vertex="1">
          <mxGeometry x="1088" y="645" width="40" height="40" as="geometry" />
        </mxCell>
        <mxCell id="-LXJKEoiE8uKDlhNojhN-55" value="" style="whiteSpace=wrap;html=1;aspect=fixed;fontSize=17;fontFamily=Verdana;fontStyle=1;fontColor=#CCCCCC;fillColor=#333333;rounded=1;strokeColor=#1A1A1A;" parent="1" vertex="1">
          <mxGeometry x="1128" y="630" width="40" height="40" as="geometry" />
        </mxCell>
        <mxCell id="-LXJKEoiE8uKDlhNojhN-56" value="" style="whiteSpace=wrap;html=1;aspect=fixed;fontSize=17;fontFamily=Verdana;fontStyle=1;fontColor=#CCCCCC;fillColor=#333333;rounded=1;strokeColor=#1A1A1A;" parent="1" vertex="1">
          <mxGeometry x="1168" y="645" width="40" height="40" as="geometry" />
        </mxCell>
        <mxCell id="-LXJKEoiE8uKDlhNojhN-57" value="RESET" style="whiteSpace=wrap;html=1;aspect=fixed;fontSize=9;fontFamily=Verdana;fontStyle=1;fontColor=#CCCCCC;fillColor=#333333;rounded=1;strokeColor=#1A1A1A;" parent="1" vertex="1">
          <mxGeometry x="1208" y="670" width="40" height="40" as="geometry" />
        </mxCell>
        <mxCell id="-LXJKEoiE8uKDlhNojhN-59" value="" style="whiteSpace=wrap;html=1;aspect=fixed;fontSize=17;fontFamily=Verdana;fontStyle=1;fontColor=#CCCCCC;fillColor=#333333;rounded=1;strokeColor=#1A1A1A;" parent="1" vertex="1">
          <mxGeometry x="1088" y="685" width="40" height="40" as="geometry" />
        </mxCell>
        <mxCell id="-LXJKEoiE8uKDlhNojhN-60" value="" style="whiteSpace=wrap;html=1;aspect=fixed;fontSize=17;fontFamily=Verdana;fontStyle=1;fontColor=#CCCCCC;fillColor=#333333;rounded=1;strokeColor=#1A1A1A;" parent="1" vertex="1">
          <mxGeometry x="1128" y="670" width="40" height="40" as="geometry" />
        </mxCell>
        <mxCell id="-LXJKEoiE8uKDlhNojhN-61" value="" style="whiteSpace=wrap;html=1;aspect=fixed;fontSize=17;fontFamily=Verdana;fontStyle=1;fontColor=#CCCCCC;fillColor=#333333;rounded=1;strokeColor=#1A1A1A;" parent="1" vertex="1">
          <mxGeometry x="1168" y="685" width="40" height="40" as="geometry" />
        </mxCell>
        <mxCell id="-LXJKEoiE8uKDlhNojhN-62" value="&lt;div style=&quot;font-size: 7px;&quot;&gt;BOOT&lt;/div&gt;&lt;div style=&quot;font-size: 7px;&quot;&gt;LOADER&lt;br style=&quot;font-size: 7px;&quot;&gt;&lt;/div&gt;" style="whiteSpace=wrap;html=1;aspect=fixed;fontSize=7;fontFamily=Verdana;fontStyle=1;fontColor=#CCCCCC;fillColor=#333333;rounded=1;strokeColor=#1A1A1A;" parent="1" vertex="1">
          <mxGeometry x="1208" y="710" width="40" height="40" as="geometry" />
        </mxCell>
        <mxCell id="-LXJKEoiE8uKDlhNojhN-64" value="" style="whiteSpace=wrap;html=1;aspect=fixed;fontSize=17;fontFamily=Verdana;fontStyle=1;fontColor=#CCCCCC;fillColor=#333333;rounded=1;strokeColor=#1A1A1A;" parent="1" vertex="1">
          <mxGeometry x="1088" y="725" width="40" height="40" as="geometry" />
        </mxCell>
        <mxCell id="-LXJKEoiE8uKDlhNojhN-65" value="" style="whiteSpace=wrap;html=1;aspect=fixed;fontSize=17;fontFamily=Verdana;fontStyle=1;fontColor=#CCCCCC;fillColor=#333333;rounded=1;strokeColor=#1A1A1A;" parent="1" vertex="1">
          <mxGeometry x="1128" y="710" width="40" height="40" as="geometry" />
        </mxCell>
        <mxCell id="-LXJKEoiE8uKDlhNojhN-66" value="" style="whiteSpace=wrap;html=1;aspect=fixed;fontSize=17;fontFamily=Verdana;fontStyle=1;fontColor=#CCCCCC;fillColor=#333333;rounded=1;strokeColor=#1A1A1A;" parent="1" vertex="1">
          <mxGeometry x="1168" y="725" width="40" height="40" as="geometry" />
        </mxCell>
        <mxCell id="-LXJKEoiE8uKDlhNojhN-67" value="" style="whiteSpace=wrap;html=1;aspect=fixed;fontSize=11;fontFamily=Verdana;fontStyle=1;fontColor=#CCCCCC;fillColor=#333333;rounded=1;strokeColor=#1A1A1A;" parent="1" vertex="1">
          <mxGeometry x="1208" y="750" width="40" height="40" as="geometry" />
        </mxCell>
        <mxCell id="-LXJKEoiE8uKDlhNojhN-68" value="" style="whiteSpace=wrap;html=1;aspect=fixed;rotation=-30;fontSize=17;fontFamily=Verdana;fontStyle=1;fontColor=#CCCCCC;fillColor=#333333;strokeColor=#1A1A1A;rounded=1;shadow=0;glass=0;sketch=0;" parent="1" vertex="1">
          <mxGeometry x="1020" y="797" width="40" height="40" as="geometry" />
        </mxCell>
        <mxCell id="-LXJKEoiE8uKDlhNojhN-69" value="" style="whiteSpace=wrap;html=1;aspect=fixed;rotation=-15;fontSize=17;fontFamily=Verdana;fontStyle=1;fontColor=#CCCCCC;fillColor=#333333;strokeColor=#1A1A1A;rounded=1;shadow=0;glass=0;sketch=0;" parent="1" vertex="1">
          <mxGeometry x="1068" y="779" width="40" height="40" as="geometry" />
        </mxCell>
        <mxCell id="-LXJKEoiE8uKDlhNojhN-70" value="Settings" style="rounded=0;whiteSpace=wrap;html=1;fontFamily=Verdana;fontSize=17;fontStyle=1;fillColor=#333333;strokeColor=#1A1A1A;fontColor=#CCCCCC;" parent="1" vertex="1">
          <mxGeometry x="878.5" y="600" width="210" height="30" as="geometry" />
        </mxCell>
        <mxCell id="-LXJKEoiE8uKDlhNojhN-71" value="BT&lt;br style=&quot;font-size: 14px;&quot;&gt;0" style="whiteSpace=wrap;html=1;aspect=fixed;fontSize=14;fontFamily=Verdana;fontStyle=1;fillColor=#333333;strokeColor=#1A1A1A;fontColor=#CCCCCC;rounded=1;" parent="1" vertex="1">
          <mxGeometry x="880" y="653" width="40" height="40" as="geometry" />
        </mxCell>
        <mxCell id="-LXJKEoiE8uKDlhNojhN-73" value="BT&lt;br style=&quot;font-size: 14px;&quot;&gt;1" style="whiteSpace=wrap;html=1;aspect=fixed;fontSize=14;fontFamily=Verdana;fontStyle=1;fillColor=#333333;strokeColor=#1A1A1A;fontColor=#CCCCCC;rounded=1;" parent="1" vertex="1">
          <mxGeometry x="880" y="693" width="40" height="40" as="geometry" />
        </mxCell>
        <mxCell id="-LXJKEoiE8uKDlhNojhN-74" value="BT&lt;br style=&quot;font-size: 14px;&quot;&gt;2" style="whiteSpace=wrap;html=1;aspect=fixed;fontSize=14;fontFamily=Verdana;fontStyle=1;fillColor=#333333;strokeColor=#1A1A1A;fontColor=#CCCCCC;rounded=1;" parent="1" vertex="1">
          <mxGeometry x="880" y="733" width="40" height="40" as="geometry" />
        </mxCell>
        <mxCell id="-LXJKEoiE8uKDlhNojhN-75" value="" style="whiteSpace=wrap;html=1;aspect=fixed;fontSize=14;fontFamily=Verdana;fontStyle=1;fillColor=#333333;strokeColor=#1A1A1A;fontColor=#CCCCCC;rounded=1;" parent="1" vertex="1">
          <mxGeometry x="1048" y="653" width="40" height="40" as="geometry" />
        </mxCell>
        <mxCell id="-LXJKEoiE8uKDlhNojhN-76" value="" style="whiteSpace=wrap;html=1;aspect=fixed;fontSize=14;fontFamily=Verdana;fontStyle=1;fillColor=#333333;strokeColor=#1A1A1A;fontColor=#CCCCCC;rounded=1;" parent="1" vertex="1">
          <mxGeometry x="1048" y="693" width="40" height="40" as="geometry" />
        </mxCell>
        <mxCell id="-LXJKEoiE8uKDlhNojhN-77" value="" style="whiteSpace=wrap;html=1;aspect=fixed;fontSize=14;fontFamily=Verdana;fontStyle=1;fillColor=#333333;strokeColor=#1A1A1A;fontColor=#CCCCCC;rounded=1;" parent="1" vertex="1">
          <mxGeometry x="1048" y="733" width="40" height="40" as="geometry" />
        </mxCell>
        <mxCell id="-LXJKEoiE8uKDlhNojhN-78" value="" style="whiteSpace=wrap;html=1;aspect=fixed;fontSize=14;fontFamily=Verdana;fontStyle=1;fillColor=#333333;strokeColor=#1A1A1A;fontColor=#CCCCCC;rounded=1;" parent="1" vertex="1">
          <mxGeometry x="840" y="645" width="40" height="40" as="geometry" />
        </mxCell>
        <mxCell id="KZa7RMUpzm1QHLMbFxHb-3" value="" style="whiteSpace=wrap;html=1;aspect=fixed;fontSize=17;fontFamily=Verdana;fontStyle=1;fontColor=#CCCCCC;fillColor=#333333;rounded=1;strokeColor=#1A1A1A;" parent="1" vertex="1">
          <mxGeometry x="720" y="110" width="40" height="40" as="geometry" />
        </mxCell>
        <mxCell id="KZa7RMUpzm1QHLMbFxHb-4" value="1" style="whiteSpace=wrap;html=1;aspect=fixed;fontSize=17;fontFamily=Verdana;fontStyle=1;fontColor=#CCCCCC;fillColor=#333333;rounded=1;strokeColor=#1A1A1A;" parent="1" vertex="1">
          <mxGeometry x="760" y="85" width="40" height="40" as="geometry" />
        </mxCell>
        <mxCell id="KZa7RMUpzm1QHLMbFxHb-5" value="2" style="whiteSpace=wrap;html=1;aspect=fixed;fontSize=17;fontFamily=Verdana;fontStyle=1;fontColor=#CCCCCC;fillColor=#333333;rounded=1;strokeColor=#1A1A1A;" parent="1" vertex="1">
          <mxGeometry x="800" y="70" width="40" height="40" as="geometry" />
        </mxCell>
        <mxCell id="KZa7RMUpzm1QHLMbFxHb-6" value="3" style="whiteSpace=wrap;html=1;aspect=fixed;fontSize=17;fontFamily=Verdana;fontStyle=1;fontColor=#CCCCCC;fillColor=#333333;rounded=1;strokeColor=#1A1A1A;" parent="1" vertex="1">
          <mxGeometry x="840" y="85" width="40" height="40" as="geometry" />
        </mxCell>
        <mxCell id="KZa7RMUpzm1QHLMbFxHb-7" value="" style="whiteSpace=wrap;html=1;aspect=fixed;fontSize=17;fontFamily=Verdana;fontStyle=1;fontColor=#CCCCCC;fillColor=#333333;rounded=1;strokeColor=#1A1A1A;" parent="1" vertex="1">
          <mxGeometry x="880" y="93" width="40" height="40" as="geometry" />
        </mxCell>
        <mxCell id="KZa7RMUpzm1QHLMbFxHb-8" value="" style="whiteSpace=wrap;html=1;aspect=fixed;fontSize=17;fontFamily=Verdana;fontStyle=1;fontColor=#CCCCCC;fillColor=#333333;rounded=1;strokeColor=#1A1A1A;" parent="1" vertex="1">
          <mxGeometry x="720" y="150" width="40" height="40" as="geometry" />
        </mxCell>
        <mxCell id="KZa7RMUpzm1QHLMbFxHb-9" value="4" style="whiteSpace=wrap;html=1;aspect=fixed;fontSize=17;fontFamily=Verdana;fontStyle=1;fontColor=#CCCCCC;fillColor=#333333;rounded=1;strokeColor=#1A1A1A;" parent="1" vertex="1">
          <mxGeometry x="760" y="125" width="40" height="40" as="geometry" />
        </mxCell>
        <mxCell id="KZa7RMUpzm1QHLMbFxHb-10" value="5" style="whiteSpace=wrap;html=1;aspect=fixed;fontSize=17;fontFamily=Verdana;fontStyle=1;fontColor=#CCCCCC;fillColor=#333333;rounded=1;strokeColor=#1A1A1A;" parent="1" vertex="1">
          <mxGeometry x="800" y="110" width="40" height="40" as="geometry" />
        </mxCell>
        <mxCell id="KZa7RMUpzm1QHLMbFxHb-11" value="6" style="whiteSpace=wrap;html=1;aspect=fixed;fontSize=17;fontFamily=Verdana;fontStyle=1;fontColor=#CCCCCC;fillColor=#333333;rounded=1;strokeColor=#1A1A1A;" parent="1" vertex="1">
          <mxGeometry x="840" y="125" width="40" height="40" as="geometry" />
        </mxCell>
        <mxCell id="KZa7RMUpzm1QHLMbFxHb-12" value="%" style="whiteSpace=wrap;html=1;aspect=fixed;fontSize=17;fontFamily=Verdana;fontStyle=1;fontColor=#CCCCCC;fillColor=#333333;rounded=1;strokeColor=#1A1A1A;" parent="1" vertex="1">
          <mxGeometry x="880" y="133" width="40" height="40" as="geometry" />
        </mxCell>
        <mxCell id="KZa7RMUpzm1QHLMbFxHb-13" value="" style="whiteSpace=wrap;html=1;aspect=fixed;fontSize=17;fontFamily=Verdana;fontStyle=1;fontColor=#CCCCCC;fillColor=#333333;rounded=1;strokeColor=#1A1A1A;" parent="1" vertex="1">
          <mxGeometry x="720" y="190" width="40" height="40" as="geometry" />
        </mxCell>
        <mxCell id="KZa7RMUpzm1QHLMbFxHb-14" value="7" style="whiteSpace=wrap;html=1;aspect=fixed;fontSize=17;fontFamily=Verdana;fontStyle=1;fontColor=#CCCCCC;fillColor=#333333;rounded=1;strokeColor=#1A1A1A;" parent="1" vertex="1">
          <mxGeometry x="760" y="165" width="40" height="40" as="geometry" />
        </mxCell>
        <mxCell id="KZa7RMUpzm1QHLMbFxHb-15" value="8" style="whiteSpace=wrap;html=1;aspect=fixed;fontSize=17;fontFamily=Verdana;fontStyle=1;fontColor=#CCCCCC;fillColor=#333333;rounded=1;strokeColor=#1A1A1A;" parent="1" vertex="1">
          <mxGeometry x="800" y="150" width="40" height="40" as="geometry" />
        </mxCell>
        <mxCell id="KZa7RMUpzm1QHLMbFxHb-16" value="9" style="whiteSpace=wrap;html=1;aspect=fixed;fontSize=17;fontFamily=Verdana;fontStyle=1;fontColor=#CCCCCC;fillColor=#333333;rounded=1;strokeColor=#1A1A1A;" parent="1" vertex="1">
          <mxGeometry x="840" y="165" width="40" height="40" as="geometry" />
        </mxCell>
        <mxCell id="KZa7RMUpzm1QHLMbFxHb-17" value="0" style="whiteSpace=wrap;html=1;aspect=fixed;fontSize=17;fontFamily=Verdana;fontStyle=1;fontColor=#CCCCCC;fillColor=#333333;rounded=1;strokeColor=#1A1A1A;" parent="1" vertex="1">
          <mxGeometry x="880" y="173" width="40" height="40" as="geometry" />
        </mxCell>
        <mxCell id="KZa7RMUpzm1QHLMbFxHb-18" value="" style="whiteSpace=wrap;html=1;aspect=fixed;rotation=15;fontSize=17;fontFamily=Verdana;fontStyle=1;fillColor=#333333;strokeColor=#1A1A1A;fontColor=#CCCCCC;rounded=1;" parent="1" vertex="1">
          <mxGeometry x="860" y="219" width="40" height="40" as="geometry" />
        </mxCell>
        <mxCell id="KZa7RMUpzm1QHLMbFxHb-19" value="ESC" style="whiteSpace=wrap;html=1;aspect=fixed;rotation=30;fontSize=12;fontFamily=Verdana;fontStyle=1;fontColor=#CCCCCC;fillColor=#333333;rounded=1;strokeColor=#1A1A1A;" parent="1" vertex="1">
          <mxGeometry x="908" y="237" width="40" height="40" as="geometry" />
        </mxCell>
        <mxCell id="KZa7RMUpzm1QHLMbFxHb-20" value="Home" style="whiteSpace=wrap;html=1;aspect=fixed;fontSize=10;fontFamily=Verdana;fontStyle=1;fontColor=#CCCCCC;fillColor=#333333;rounded=1;strokeColor=#1A1A1A;" parent="1" vertex="1">
          <mxGeometry x="1048" y="93" width="40" height="40" as="geometry" />
        </mxCell>
        <mxCell id="KZa7RMUpzm1QHLMbFxHb-21" value="PGDN" style="whiteSpace=wrap;html=1;aspect=fixed;fontSize=10;fontFamily=Verdana;fontStyle=1;fontColor=#CCCCCC;fillColor=#333333;rounded=1;strokeColor=#1A1A1A;" parent="1" vertex="1">
          <mxGeometry x="1088" y="85" width="40" height="40" as="geometry" />
        </mxCell>
        <mxCell id="KZa7RMUpzm1QHLMbFxHb-22" value="↑" style="whiteSpace=wrap;html=1;aspect=fixed;fontSize=24;fontFamily=Verdana;fontStyle=1;fontColor=#CCCCCC;fillColor=#333333;rounded=1;strokeColor=#1A1A1A;" parent="1" vertex="1">
          <mxGeometry x="1128" y="70" width="40" height="40" as="geometry" />
        </mxCell>
        <mxCell id="KZa7RMUpzm1QHLMbFxHb-23" value="PGUP" style="whiteSpace=wrap;html=1;aspect=fixed;fontSize=10;fontFamily=Verdana;fontStyle=1;fontColor=#CCCCCC;fillColor=#333333;rounded=1;strokeColor=#1A1A1A;" parent="1" vertex="1">
          <mxGeometry x="1168" y="85" width="40" height="40" as="geometry" />
        </mxCell>
        <mxCell id="KZa7RMUpzm1QHLMbFxHb-24" value="" style="whiteSpace=wrap;html=1;aspect=fixed;fontSize=17;fontFamily=Verdana;fontStyle=1;fontColor=#CCCCCC;fillColor=#333333;rounded=1;strokeColor=#1A1A1A;" parent="1" vertex="1">
          <mxGeometry x="1208" y="110" width="40" height="40" as="geometry" />
        </mxCell>
        <mxCell id="KZa7RMUpzm1QHLMbFxHb-25" value="End" style="whiteSpace=wrap;html=1;aspect=fixed;fontSize=10;fontFamily=Verdana;fontStyle=1;fontColor=#CCCCCC;fillColor=#333333;rounded=1;strokeColor=#1A1A1A;" parent="1" vertex="1">
          <mxGeometry x="1048" y="133" width="40" height="40" as="geometry" />
        </mxCell>
        <mxCell id="KZa7RMUpzm1QHLMbFxHb-26" value="←" style="whiteSpace=wrap;html=1;aspect=fixed;fontSize=24;fontFamily=Verdana;fontStyle=1;fontColor=#CCCCCC;fillColor=#333333;rounded=1;strokeColor=#1A1A1A;" parent="1" vertex="1">
          <mxGeometry x="1088" y="125" width="40" height="40" as="geometry" />
        </mxCell>
        <mxCell id="KZa7RMUpzm1QHLMbFxHb-27" value="↓" style="whiteSpace=wrap;html=1;aspect=fixed;fontSize=24;fontFamily=Verdana;fontStyle=1;fontColor=#CCCCCC;fillColor=#333333;rounded=1;strokeColor=#1A1A1A;" parent="1" vertex="1">
          <mxGeometry x="1128" y="110" width="40" height="40" as="geometry" />
        </mxCell>
        <mxCell id="KZa7RMUpzm1QHLMbFxHb-28" value="→" style="whiteSpace=wrap;html=1;aspect=fixed;fontSize=24;fontFamily=Verdana;fontStyle=1;fontColor=#CCCCCC;fillColor=#333333;rounded=1;strokeColor=#1A1A1A;" parent="1" vertex="1">
          <mxGeometry x="1168" y="125" width="40" height="40" as="geometry" />
        </mxCell>
        <mxCell id="KZa7RMUpzm1QHLMbFxHb-29" value="TAP" style="whiteSpace=wrap;html=1;aspect=fixed;fontSize=17;fontFamily=Verdana;fontStyle=1;fontColor=#CCCCCC;fillColor=#333333;rounded=1;strokeColor=#1A1A1A;" parent="1" vertex="1">
          <mxGeometry x="1208" y="150" width="40" height="40" as="geometry" />
        </mxCell>
        <mxCell id="KZa7RMUpzm1QHLMbFxHb-30" value="" style="whiteSpace=wrap;html=1;aspect=fixed;fontSize=17;fontFamily=Verdana;fontStyle=1;fontColor=#CCCCCC;fillColor=#333333;rounded=1;strokeColor=#1A1A1A;" parent="1" vertex="1">
          <mxGeometry x="1048" y="173" width="40" height="40" as="geometry" />
        </mxCell>
        <mxCell id="KZa7RMUpzm1QHLMbFxHb-31" value="VOLDN" style="whiteSpace=wrap;html=1;aspect=fixed;fontSize=10;fontFamily=Verdana;fontStyle=1;fontColor=#CCCCCC;fillColor=#333333;rounded=1;strokeColor=#1A1A1A;" parent="1" vertex="1">
          <mxGeometry x="1088" y="165" width="40" height="40" as="geometry" />
        </mxCell>
        <mxCell id="KZa7RMUpzm1QHLMbFxHb-32" value="VOLUP" style="whiteSpace=wrap;html=1;aspect=fixed;fontSize=10;fontFamily=Verdana;fontStyle=1;fontColor=#CCCCCC;fillColor=#333333;rounded=1;strokeColor=#1A1A1A;" parent="1" vertex="1">
          <mxGeometry x="1128" y="150" width="40" height="40" as="geometry" />
        </mxCell>
        <mxCell id="KZa7RMUpzm1QHLMbFxHb-33" value="PAUSE" style="whiteSpace=wrap;html=1;aspect=fixed;fontSize=10;fontFamily=Verdana;fontStyle=1;fontColor=#CCCCCC;fillColor=#333333;rounded=1;strokeColor=#1A1A1A;" parent="1" vertex="1">
          <mxGeometry x="1168" y="165" width="40" height="40" as="geometry" />
        </mxCell>
        <mxCell id="KZa7RMUpzm1QHLMbFxHb-34" value="" style="whiteSpace=wrap;html=1;aspect=fixed;fontSize=17;fontFamily=Verdana;fontStyle=1;fontColor=#CCCCCC;fillColor=#333333;rounded=1;strokeColor=#1A1A1A;" parent="1" vertex="1">
          <mxGeometry x="1208" y="190" width="40" height="40" as="geometry" />
        </mxCell>
        <mxCell id="KZa7RMUpzm1QHLMbFxHb-35" value="" style="whiteSpace=wrap;html=1;aspect=fixed;rotation=-30;fontSize=17;fontFamily=Verdana;fontStyle=1;fontColor=#CCCCCC;fillColor=#333333;rounded=1;strokeColor=#1A1A1A;" parent="1" vertex="1">
          <mxGeometry x="1020" y="237" width="40" height="40" as="geometry" />
        </mxCell>
        <mxCell id="KZa7RMUpzm1QHLMbFxHb-36" value="" style="whiteSpace=wrap;html=1;aspect=fixed;rotation=-15;fontSize=17;fontFamily=Verdana;fontStyle=1;fillColor=#333333;strokeColor=#1A1A1A;fontColor=#CCCCCC;rounded=1;" parent="1" vertex="1">
          <mxGeometry x="1068" y="219" width="40" height="40" as="geometry" />
        </mxCell>
        <mxCell id="KZa7RMUpzm1QHLMbFxHb-37" value="&lt;div&gt;&lt;b&gt;Right layer&lt;br&gt;&lt;/b&gt;&lt;/div&gt;" style="rounded=0;whiteSpace=wrap;html=1;fontFamily=Verdana;fontSize=17;fontColor=#CCCCCC;fillColor=#333333;strokeColor=#1A1A1A;" parent="1" vertex="1">
          <mxGeometry x="878.5" y="40" width="210" height="30" as="geometry" />
        </mxCell>
        <mxCell id="KZa7RMUpzm1QHLMbFxHb-38" value="#" style="whiteSpace=wrap;html=1;aspect=fixed;fontSize=17;fontFamily=Verdana;fontStyle=1;fontColor=#CCCCCC;fillColor=#333333;rounded=1;strokeColor=#1A1A1A;" parent="1" vertex="1">
          <mxGeometry x="720" y="390" width="40" height="40" as="geometry" />
        </mxCell>
        <mxCell id="KZa7RMUpzm1QHLMbFxHb-39" value="$" style="whiteSpace=wrap;html=1;aspect=fixed;fontSize=17;fontFamily=Verdana;fontStyle=1;fontColor=#CCCCCC;fillColor=#333333;rounded=1;strokeColor=#1A1A1A;" parent="1" vertex="1">
          <mxGeometry x="760" y="365" width="40" height="40" as="geometry" />
        </mxCell>
        <mxCell id="KZa7RMUpzm1QHLMbFxHb-40" value="@" style="whiteSpace=wrap;html=1;aspect=fixed;fontSize=17;fontFamily=Verdana;fontStyle=1;fontColor=#CCCCCC;fillColor=#333333;rounded=1;strokeColor=#1A1A1A;" parent="1" vertex="1">
          <mxGeometry x="800" y="350" width="40" height="40" as="geometry" />
        </mxCell>
        <mxCell id="KZa7RMUpzm1QHLMbFxHb-41" value="=" style="whiteSpace=wrap;html=1;aspect=fixed;fontSize=17;fontFamily=Verdana;fontStyle=1;fontColor=#CCCCCC;fillColor=#333333;rounded=1;strokeColor=#1A1A1A;" parent="1" vertex="1">
          <mxGeometry x="840" y="365" width="40" height="40" as="geometry" />
        </mxCell>
        <mxCell id="KZa7RMUpzm1QHLMbFxHb-42" value=")" style="whiteSpace=wrap;html=1;aspect=fixed;fontSize=17;fontFamily=Verdana;fontStyle=1;fontColor=#CCCCCC;fillColor=#333333;rounded=1;strokeColor=#1A1A1A;" parent="1" vertex="1">
          <mxGeometry x="880" y="373" width="40" height="40" as="geometry" />
        </mxCell>
        <mxCell id="KZa7RMUpzm1QHLMbFxHb-43" value="´" style="whiteSpace=wrap;html=1;aspect=fixed;fontSize=17;fontFamily=Verdana;fontStyle=1;fontColor=#CCCCCC;fillColor=#333333;rounded=1;strokeColor=#1A1A1A;" parent="1" vertex="1">
          <mxGeometry x="720" y="430" width="40" height="40" as="geometry" />
        </mxCell>
        <mxCell id="KZa7RMUpzm1QHLMbFxHb-44" value="|" style="whiteSpace=wrap;html=1;aspect=fixed;fontSize=17;fontFamily=Verdana;fontStyle=1;fontColor=#CCCCCC;fillColor=#333333;rounded=1;strokeColor=#1A1A1A;" parent="1" vertex="1">
          <mxGeometry x="760" y="405" width="40" height="40" as="geometry" />
        </mxCell>
        <mxCell id="KZa7RMUpzm1QHLMbFxHb-45" value="!" style="whiteSpace=wrap;html=1;aspect=fixed;fontSize=17;fontFamily=Verdana;fontStyle=1;fontColor=#CCCCCC;fillColor=#333333;rounded=1;strokeColor=#1A1A1A;" parent="1" vertex="1">
          <mxGeometry x="800" y="390" width="40" height="40" as="geometry" />
        </mxCell>
        <mxCell id="KZa7RMUpzm1QHLMbFxHb-46" value="?" style="whiteSpace=wrap;html=1;aspect=fixed;fontSize=17;fontFamily=Verdana;fontStyle=1;fontColor=#CCCCCC;fillColor=#333333;rounded=1;strokeColor=#1A1A1A;" parent="1" vertex="1">
          <mxGeometry x="840" y="405" width="40" height="40" as="geometry" />
        </mxCell>
        <mxCell id="KZa7RMUpzm1QHLMbFxHb-47" value="}" style="whiteSpace=wrap;html=1;aspect=fixed;fontSize=17;fontFamily=Verdana;fontStyle=1;fontColor=#CCCCCC;fillColor=#333333;rounded=1;strokeColor=#1A1A1A;" parent="1" vertex="1">
          <mxGeometry x="880" y="413" width="40" height="40" as="geometry" />
        </mxCell>
        <mxCell id="KZa7RMUpzm1QHLMbFxHb-48" value="`" style="whiteSpace=wrap;html=1;aspect=fixed;fontSize=17;fontFamily=Verdana;fontStyle=1;fontColor=#CCCCCC;fillColor=#333333;rounded=1;strokeColor=#1A1A1A;" parent="1" vertex="1">
          <mxGeometry x="720" y="470" width="40" height="40" as="geometry" />
        </mxCell>
        <mxCell id="KZa7RMUpzm1QHLMbFxHb-49" value="^" style="whiteSpace=wrap;html=1;aspect=fixed;fontSize=17;fontFamily=Verdana;fontStyle=1;fontColor=#CCCCCC;fillColor=#333333;rounded=1;strokeColor=#1A1A1A;" parent="1" vertex="1">
          <mxGeometry x="760" y="445" width="40" height="40" as="geometry" />
        </mxCell>
        <mxCell id="KZa7RMUpzm1QHLMbFxHb-50" value="bslsh" style="whiteSpace=wrap;html=1;aspect=fixed;fontSize=17;fontFamily=Verdana;fontStyle=1;fontColor=#CCCCCC;fillColor=#333333;rounded=1;strokeColor=#1A1A1A;" parent="1" vertex="1">
          <mxGeometry x="800" y="430" width="40" height="40" as="geometry" />
        </mxCell>
        <mxCell id="KZa7RMUpzm1QHLMbFxHb-51" value="+" style="whiteSpace=wrap;html=1;aspect=fixed;fontSize=17;fontFamily=Verdana;fontStyle=1;fontColor=#CCCCCC;fillColor=#333333;rounded=1;strokeColor=#1A1A1A;" parent="1" vertex="1">
          <mxGeometry x="840" y="445" width="40" height="40" as="geometry" />
        </mxCell>
        <mxCell id="KZa7RMUpzm1QHLMbFxHb-52" value="]" style="whiteSpace=wrap;html=1;aspect=fixed;fontSize=17;fontFamily=Verdana;fontStyle=1;fontColor=#CCCCCC;fillColor=#333333;rounded=1;strokeColor=#1A1A1A;" parent="1" vertex="1">
          <mxGeometry x="880" y="453" width="40" height="40" as="geometry" />
        </mxCell>
        <mxCell id="KZa7RMUpzm1QHLMbFxHb-53" value="" style="whiteSpace=wrap;html=1;aspect=fixed;rotation=15;fontSize=17;fontFamily=Verdana;fontStyle=1;fillColor=#333333;strokeColor=#1A1A1A;fontColor=#CCCCCC;rounded=1;" parent="1" vertex="1">
          <mxGeometry x="860" y="499" width="40" height="40" as="geometry" />
        </mxCell>
        <mxCell id="KZa7RMUpzm1QHLMbFxHb-54" value="" style="whiteSpace=wrap;html=1;aspect=fixed;rotation=30;fontSize=12;fontFamily=Verdana;fontStyle=1;fontColor=#CCCCCC;fillColor=#333333;rounded=1;strokeColor=#1A1A1A;" parent="1" vertex="1">
          <mxGeometry x="908" y="517" width="40" height="40" as="geometry" />
        </mxCell>
        <mxCell id="KZa7RMUpzm1QHLMbFxHb-55" value="(" style="whiteSpace=wrap;html=1;aspect=fixed;fontSize=17;fontFamily=Verdana;fontStyle=1;fontColor=#CCCCCC;fillColor=#333333;rounded=1;strokeColor=#1A1A1A;" parent="1" vertex="1">
          <mxGeometry x="1048" y="373" width="40" height="40" as="geometry" />
        </mxCell>
        <mxCell id="KZa7RMUpzm1QHLMbFxHb-56" value="&amp;lt;" style="whiteSpace=wrap;html=1;aspect=fixed;fontSize=17;fontFamily=Verdana;fontStyle=1;fontColor=#CCCCCC;fillColor=#333333;rounded=1;strokeColor=#1A1A1A;" parent="1" vertex="1">
          <mxGeometry x="1088" y="365" width="40" height="40" as="geometry" />
        </mxCell>
        <mxCell id="KZa7RMUpzm1QHLMbFxHb-57" value="&amp;gt;" style="whiteSpace=wrap;html=1;aspect=fixed;fontSize=17;fontFamily=Verdana;fontStyle=1;fontColor=#CCCCCC;fillColor=#333333;rounded=1;strokeColor=#1A1A1A;" parent="1" vertex="1">
          <mxGeometry x="1128" y="350" width="40" height="40" as="geometry" />
        </mxCell>
        <mxCell id="KZa7RMUpzm1QHLMbFxHb-58" value="&amp;amp;" style="whiteSpace=wrap;html=1;aspect=fixed;fontSize=17;fontFamily=Verdana;fontStyle=1;fontColor=#CCCCCC;fillColor=#333333;rounded=1;strokeColor=#1A1A1A;" parent="1" vertex="1">
          <mxGeometry x="1168" y="365" width="40" height="40" as="geometry" />
        </mxCell>
        <mxCell id="KZa7RMUpzm1QHLMbFxHb-59" value="~" style="whiteSpace=wrap;html=1;aspect=fixed;fontSize=17;fontFamily=Verdana;fontStyle=1;fontColor=#CCCCCC;fillColor=#333333;rounded=1;strokeColor=#1A1A1A;" parent="1" vertex="1">
          <mxGeometry x="1208" y="390" width="40" height="40" as="geometry" />
        </mxCell>
        <mxCell id="KZa7RMUpzm1QHLMbFxHb-60" value="{" style="whiteSpace=wrap;html=1;aspect=fixed;fontSize=17;fontFamily=Verdana;fontStyle=1;fontColor=#CCCCCC;fillColor=#333333;rounded=1;strokeColor=#1A1A1A;" parent="1" vertex="1">
          <mxGeometry x="1048" y="413" width="40" height="40" as="geometry" />
        </mxCell>
        <mxCell id="KZa7RMUpzm1QHLMbFxHb-61" value=":" style="whiteSpace=wrap;html=1;aspect=fixed;fontSize=17;fontFamily=Verdana;fontStyle=1;fontColor=#CCCCCC;fillColor=#333333;rounded=1;strokeColor=#1A1A1A;" parent="1" vertex="1">
          <mxGeometry x="1088" y="405" width="40" height="40" as="geometry" />
        </mxCell>
        <mxCell id="KZa7RMUpzm1QHLMbFxHb-62" value=";" style="whiteSpace=wrap;html=1;aspect=fixed;fontSize=17;fontFamily=Verdana;fontStyle=1;fontColor=#CCCCCC;fillColor=#333333;rounded=1;strokeColor=#1A1A1A;" parent="1" vertex="1">
          <mxGeometry x="1128" y="390" width="40" height="40" as="geometry" />
        </mxCell>
        <mxCell id="KZa7RMUpzm1QHLMbFxHb-63" value="/" style="whiteSpace=wrap;html=1;aspect=fixed;fontSize=17;fontFamily=Verdana;fontStyle=1;fontColor=#CCCCCC;fillColor=#333333;rounded=1;strokeColor=#1A1A1A;" parent="1" vertex="1">
          <mxGeometry x="1168" y="405" width="40" height="40" as="geometry" />
        </mxCell>
        <mxCell id="KZa7RMUpzm1QHLMbFxHb-64" value="*" style="whiteSpace=wrap;html=1;aspect=fixed;fontSize=17;fontFamily=Verdana;fontStyle=1;fontColor=#CCCCCC;fillColor=#333333;rounded=1;strokeColor=#1A1A1A;" parent="1" vertex="1">
          <mxGeometry x="1208" y="430" width="40" height="40" as="geometry" />
        </mxCell>
        <mxCell id="KZa7RMUpzm1QHLMbFxHb-65" value="[" style="whiteSpace=wrap;html=1;aspect=fixed;fontSize=17;fontFamily=Verdana;fontStyle=1;fontColor=#CCCCCC;fillColor=#333333;rounded=1;strokeColor=#1A1A1A;" parent="1" vertex="1">
          <mxGeometry x="1048" y="453" width="40" height="40" as="geometry" />
        </mxCell>
        <mxCell id="KZa7RMUpzm1QHLMbFxHb-66" value="-" style="whiteSpace=wrap;html=1;aspect=fixed;fontSize=17;fontFamily=Verdana;fontStyle=1;fontColor=#CCCCCC;fillColor=#333333;rounded=1;strokeColor=#1A1A1A;" parent="1" vertex="1">
          <mxGeometry x="1088" y="445" width="40" height="40" as="geometry" />
        </mxCell>
        <mxCell id="KZa7RMUpzm1QHLMbFxHb-67" value="_" style="whiteSpace=wrap;html=1;aspect=fixed;fontSize=17;fontFamily=Verdana;fontStyle=1;fontColor=#CCCCCC;fillColor=#333333;rounded=1;strokeColor=#1A1A1A;" parent="1" vertex="1">
          <mxGeometry x="1128" y="430" width="40" height="40" as="geometry" />
        </mxCell>
        <mxCell id="KZa7RMUpzm1QHLMbFxHb-68" value="&quot;" style="whiteSpace=wrap;html=1;aspect=fixed;fontSize=17;fontFamily=Verdana;fontStyle=1;fontColor=#CCCCCC;fillColor=#333333;rounded=1;strokeColor=#1A1A1A;" parent="1" vertex="1">
          <mxGeometry x="1168" y="445" width="40" height="40" as="geometry" />
        </mxCell>
        <mxCell id="KZa7RMUpzm1QHLMbFxHb-69" value="&#39;" style="whiteSpace=wrap;html=1;aspect=fixed;fontSize=17;fontFamily=Verdana;fontStyle=1;fontColor=#CCCCCC;fillColor=#333333;rounded=1;strokeColor=#1A1A1A;" parent="1" vertex="1">
          <mxGeometry x="1208" y="470" width="40" height="40" as="geometry" />
        </mxCell>
        <mxCell id="KZa7RMUpzm1QHLMbFxHb-70" value="" style="whiteSpace=wrap;html=1;aspect=fixed;rotation=-30;fontSize=17;fontFamily=Verdana;fontStyle=1;fontColor=#CCCCCC;fillColor=#333333;rounded=1;strokeColor=#1A1A1A;" parent="1" vertex="1">
          <mxGeometry x="1020" y="517" width="40" height="40" as="geometry" />
        </mxCell>
        <mxCell id="KZa7RMUpzm1QHLMbFxHb-71" value="DEL" style="whiteSpace=wrap;html=1;aspect=fixed;rotation=-15;fontSize=17;fontFamily=Verdana;fontStyle=1;fillColor=#333333;strokeColor=#1A1A1A;fontColor=#CCCCCC;rounded=1;" parent="1" vertex="1">
          <mxGeometry x="1068" y="499" width="40" height="40" as="geometry" />
        </mxCell>
        <mxCell id="KZa7RMUpzm1QHLMbFxHb-72" value="&lt;div&gt;&lt;b&gt;Left layer&lt;br&gt;&lt;/b&gt;&lt;/div&gt;" style="rounded=0;whiteSpace=wrap;html=1;fontFamily=Verdana;fontSize=17;fontColor=#CCCCCC;fillColor=#333333;strokeColor=#1A1A1A;" parent="1" vertex="1">
          <mxGeometry x="878.5" y="320" width="210" height="30" as="geometry" />
        </mxCell>
        <mxCell id="KZa7RMUpzm1QHLMbFxHb-73" value="" style="whiteSpace=wrap;html=1;aspect=fixed;fontSize=17;fontFamily=Verdana;fontStyle=1;fontColor=#CCCCCC;fillColor=#333333;rounded=1;strokeColor=#1A1A1A;" parent="1" vertex="1">
          <mxGeometry x="149.5" y="390" width="40" height="40" as="geometry" />
        </mxCell>
        <mxCell id="KZa7RMUpzm1QHLMbFxHb-74" value="" style="whiteSpace=wrap;html=1;aspect=fixed;fontSize=17;fontFamily=Verdana;fontStyle=1;fontColor=#CCCCCC;fillColor=#333333;rounded=1;strokeColor=#1A1A1A;" parent="1" vertex="1">
          <mxGeometry x="189.5" y="365" width="40" height="40" as="geometry" />
        </mxCell>
        <mxCell id="KZa7RMUpzm1QHLMbFxHb-75" value="" style="whiteSpace=wrap;html=1;aspect=fixed;fontSize=17;fontFamily=Verdana;fontStyle=1;fontColor=#CCCCCC;fillColor=#333333;rounded=1;strokeColor=#1A1A1A;" parent="1" vertex="1">
          <mxGeometry x="229.5" y="350" width="40" height="40" as="geometry" />
        </mxCell>
        <mxCell id="KZa7RMUpzm1QHLMbFxHb-76" value="" style="whiteSpace=wrap;html=1;aspect=fixed;fontSize=17;fontFamily=Verdana;fontStyle=1;fontColor=#CCCCCC;fillColor=#333333;rounded=1;strokeColor=#1A1A1A;" parent="1" vertex="1">
          <mxGeometry x="269.5" y="365" width="40" height="40" as="geometry" />
        </mxCell>
        <mxCell id="KZa7RMUpzm1QHLMbFxHb-77" value="" style="whiteSpace=wrap;html=1;aspect=fixed;fontSize=17;fontFamily=Verdana;fontStyle=1;fontColor=#CCCCCC;fillColor=#333333;rounded=1;strokeColor=#1A1A1A;" parent="1" vertex="1">
          <mxGeometry x="309.5" y="373" width="40" height="40" as="geometry" />
        </mxCell>
        <mxCell id="KZa7RMUpzm1QHLMbFxHb-78" value="" style="whiteSpace=wrap;html=1;aspect=fixed;fontSize=13;fontFamily=Verdana;fontStyle=1;fontColor=#CCCCCC;fillColor=#333333;rounded=1;strokeColor=#1A1A1A;" parent="1" vertex="1">
          <mxGeometry x="149.5" y="430" width="40" height="40" as="geometry" />
        </mxCell>
        <mxCell id="KZa7RMUpzm1QHLMbFxHb-79" value="" style="whiteSpace=wrap;html=1;aspect=fixed;fontSize=13;fontFamily=Verdana;fontStyle=1;fontColor=#CCCCCC;fillColor=#333333;rounded=1;strokeColor=#1A1A1A;" parent="1" vertex="1">
          <mxGeometry x="189.5" y="405" width="40" height="40" as="geometry" />
        </mxCell>
        <mxCell id="KZa7RMUpzm1QHLMbFxHb-80" value="" style="whiteSpace=wrap;html=1;aspect=fixed;fontSize=13;fontFamily=Verdana;fontStyle=1;fontColor=#CCCCCC;fillColor=#333333;rounded=1;strokeColor=#1A1A1A;" parent="1" vertex="1">
          <mxGeometry x="229.5" y="390" width="40" height="40" as="geometry" />
        </mxCell>
        <mxCell id="KZa7RMUpzm1QHLMbFxHb-81" value="" style="whiteSpace=wrap;html=1;aspect=fixed;fontSize=13;fontFamily=Verdana;fontStyle=1;fontColor=#CCCCCC;fillColor=#333333;rounded=1;strokeColor=#1A1A1A;" parent="1" vertex="1">
          <mxGeometry x="269.5" y="405" width="40" height="40" as="geometry" />
        </mxCell>
        <mxCell id="KZa7RMUpzm1QHLMbFxHb-82" value="" style="whiteSpace=wrap;html=1;aspect=fixed;fontSize=17;fontFamily=Verdana;fontStyle=1;fontColor=#CCCCCC;fillColor=#333333;rounded=1;strokeColor=#1A1A1A;" parent="1" vertex="1">
          <mxGeometry x="309.5" y="413" width="40" height="40" as="geometry" />
        </mxCell>
        <mxCell id="KZa7RMUpzm1QHLMbFxHb-83" value="" style="whiteSpace=wrap;html=1;aspect=fixed;fontSize=17;fontFamily=Verdana;fontStyle=1;fontColor=#CCCCCC;fillColor=#333333;rounded=1;strokeColor=#1A1A1A;" parent="1" vertex="1">
          <mxGeometry x="149.5" y="470" width="40" height="40" as="geometry" />
        </mxCell>
        <mxCell id="KZa7RMUpzm1QHLMbFxHb-84" value="" style="whiteSpace=wrap;html=1;aspect=fixed;fontSize=17;fontFamily=Verdana;fontStyle=1;fontColor=#CCCCCC;fillColor=#333333;rounded=1;strokeColor=#1A1A1A;" parent="1" vertex="1">
          <mxGeometry x="189.5" y="445" width="40" height="40" as="geometry" />
        </mxCell>
        <mxCell id="KZa7RMUpzm1QHLMbFxHb-85" value="" style="whiteSpace=wrap;html=1;aspect=fixed;fontSize=17;fontFamily=Verdana;fontStyle=1;fontColor=#CCCCCC;fillColor=#333333;rounded=1;strokeColor=#1A1A1A;" parent="1" vertex="1">
          <mxGeometry x="229.5" y="430" width="40" height="40" as="geometry" />
        </mxCell>
        <mxCell id="KZa7RMUpzm1QHLMbFxHb-86" value="" style="whiteSpace=wrap;html=1;aspect=fixed;fontSize=11;fontFamily=Verdana;fontStyle=1;fontColor=#CCCCCC;fillColor=#333333;rounded=1;strokeColor=#1A1A1A;" parent="1" vertex="1">
          <mxGeometry x="269.5" y="445" width="40" height="40" as="geometry" />
        </mxCell>
        <mxCell id="KZa7RMUpzm1QHLMbFxHb-87" value="" style="whiteSpace=wrap;html=1;aspect=fixed;fontSize=17;fontFamily=Verdana;fontStyle=1;fontColor=#CCCCCC;fillColor=#333333;rounded=1;strokeColor=#1A1A1A;" parent="1" vertex="1">
          <mxGeometry x="309.5" y="453" width="40" height="40" as="geometry" />
        </mxCell>
        <mxCell id="KZa7RMUpzm1QHLMbFxHb-88" value="Left" style="whiteSpace=wrap;html=1;aspect=fixed;rotation=15;fontSize=12;fontFamily=Verdana;fontStyle=1;fillColor=#333333;strokeColor=#1A1A1A;fontColor=#CCCCCC;rounded=1;" parent="1" vertex="1">
          <mxGeometry x="289.5" y="499" width="40" height="40" as="geometry" />
        </mxCell>
        <mxCell id="KZa7RMUpzm1QHLMbFxHb-89" value="Mods" style="whiteSpace=wrap;html=1;aspect=fixed;rotation=30;fontSize=12;fontFamily=Verdana;fontStyle=1;fontColor=#CCCCCC;fillColor=#333333;rounded=1;strokeColor=#1A1A1A;" parent="1" vertex="1">
          <mxGeometry x="337.5" y="517" width="40" height="40" as="geometry" />
        </mxCell>
        <mxCell id="KZa7RMUpzm1QHLMbFxHb-90" value="" style="whiteSpace=wrap;html=1;aspect=fixed;fontSize=17;fontFamily=Verdana;fontStyle=1;fontColor=#CCCCCC;fillColor=#333333;rounded=1;strokeColor=#1A1A1A;" parent="1" vertex="1">
          <mxGeometry x="477.5" y="373" width="40" height="40" as="geometry" />
        </mxCell>
        <mxCell id="KZa7RMUpzm1QHLMbFxHb-91" value="" style="whiteSpace=wrap;html=1;aspect=fixed;fontSize=17;fontFamily=Verdana;fontStyle=1;fontColor=#CCCCCC;fillColor=#333333;rounded=1;strokeColor=#1A1A1A;" parent="1" vertex="1">
          <mxGeometry x="517.5" y="365" width="40" height="40" as="geometry" />
        </mxCell>
        <mxCell id="KZa7RMUpzm1QHLMbFxHb-92" value="" style="whiteSpace=wrap;html=1;aspect=fixed;fontSize=17;fontFamily=Verdana;fontStyle=1;fontColor=#CCCCCC;fillColor=#333333;rounded=1;strokeColor=#1A1A1A;" parent="1" vertex="1">
          <mxGeometry x="557.5" y="350" width="40" height="40" as="geometry" />
        </mxCell>
        <mxCell id="KZa7RMUpzm1QHLMbFxHb-93" value="" style="whiteSpace=wrap;html=1;aspect=fixed;fontSize=17;fontFamily=Verdana;fontStyle=1;fontColor=#CCCCCC;fillColor=#333333;rounded=1;strokeColor=#1A1A1A;" parent="1" vertex="1">
          <mxGeometry x="597.5" y="365" width="40" height="40" as="geometry" />
        </mxCell>
        <mxCell id="KZa7RMUpzm1QHLMbFxHb-94" value="" style="whiteSpace=wrap;html=1;aspect=fixed;fontSize=17;fontFamily=Verdana;fontStyle=1;fontColor=#CCCCCC;fillColor=#333333;rounded=1;strokeColor=#1A1A1A;" parent="1" vertex="1">
          <mxGeometry x="637.5" y="390" width="40" height="40" as="geometry" />
        </mxCell>
        <mxCell id="KZa7RMUpzm1QHLMbFxHb-95" value="" style="whiteSpace=wrap;html=1;aspect=fixed;fontSize=17;fontFamily=Verdana;fontStyle=1;fontColor=#CCCCCC;fillColor=#333333;rounded=1;strokeColor=#1A1A1A;" parent="1" vertex="1">
          <mxGeometry x="477.5" y="413" width="40" height="40" as="geometry" />
        </mxCell>
        <mxCell id="KZa7RMUpzm1QHLMbFxHb-96" value="" style="whiteSpace=wrap;html=1;aspect=fixed;fontSize=13;fontFamily=Verdana;fontStyle=1;fontColor=#CCCCCC;fillColor=#333333;rounded=1;strokeColor=#1A1A1A;" parent="1" vertex="1">
          <mxGeometry x="517.5" y="405" width="40" height="40" as="geometry" />
        </mxCell>
        <mxCell id="KZa7RMUpzm1QHLMbFxHb-97" value="" style="whiteSpace=wrap;html=1;aspect=fixed;fontSize=13;fontFamily=Verdana;fontStyle=1;fontColor=#CCCCCC;fillColor=#333333;rounded=1;strokeColor=#1A1A1A;" parent="1" vertex="1">
          <mxGeometry x="557.5" y="390" width="40" height="40" as="geometry" />
        </mxCell>
        <mxCell id="KZa7RMUpzm1QHLMbFxHb-98" value="" style="whiteSpace=wrap;html=1;aspect=fixed;fontSize=13;fontFamily=Verdana;fontStyle=1;fontColor=#CCCCCC;fillColor=#333333;rounded=1;strokeColor=#1A1A1A;" parent="1" vertex="1">
          <mxGeometry x="597.5" y="405" width="40" height="40" as="geometry" />
        </mxCell>
        <mxCell id="KZa7RMUpzm1QHLMbFxHb-99" value="" style="whiteSpace=wrap;html=1;aspect=fixed;fontSize=13;fontFamily=Verdana;fontStyle=1;fontColor=#CCCCCC;fillColor=#333333;rounded=1;strokeColor=#1A1A1A;" parent="1" vertex="1">
          <mxGeometry x="637.5" y="430" width="40" height="40" as="geometry" />
        </mxCell>
        <mxCell id="KZa7RMUpzm1QHLMbFxHb-100" value="" style="whiteSpace=wrap;html=1;aspect=fixed;fontSize=17;fontFamily=Verdana;fontStyle=1;fontColor=#CCCCCC;fillColor=#333333;rounded=1;strokeColor=#1A1A1A;" parent="1" vertex="1">
          <mxGeometry x="477.5" y="453" width="40" height="40" as="geometry" />
        </mxCell>
        <mxCell id="KZa7RMUpzm1QHLMbFxHb-101" value="" style="whiteSpace=wrap;html=1;aspect=fixed;fontSize=11;fontFamily=Verdana;fontStyle=1;fontColor=#CCCCCC;fillColor=#333333;rounded=1;strokeColor=#1A1A1A;" parent="1" vertex="1">
          <mxGeometry x="517.5" y="445" width="40" height="40" as="geometry" />
        </mxCell>
        <mxCell id="KZa7RMUpzm1QHLMbFxHb-102" value="" style="whiteSpace=wrap;html=1;aspect=fixed;fontSize=17;fontFamily=Verdana;fontStyle=1;fontColor=#CCCCCC;fillColor=#333333;rounded=1;strokeColor=#1A1A1A;" parent="1" vertex="1">
          <mxGeometry x="557.5" y="430" width="40" height="40" as="geometry" />
        </mxCell>
        <mxCell id="KZa7RMUpzm1QHLMbFxHb-103" value="" style="whiteSpace=wrap;html=1;aspect=fixed;fontSize=17;fontFamily=Verdana;fontStyle=1;fontColor=#CCCCCC;fillColor=#333333;rounded=1;strokeColor=#1A1A1A;" parent="1" vertex="1">
          <mxGeometry x="597.5" y="445" width="40" height="40" as="geometry" />
        </mxCell>
        <mxCell id="KZa7RMUpzm1QHLMbFxHb-104" value="" style="whiteSpace=wrap;html=1;aspect=fixed;fontSize=17;fontFamily=Verdana;fontStyle=1;fontColor=#CCCCCC;fillColor=#333333;rounded=1;strokeColor=#1A1A1A;" parent="1" vertex="1">
          <mxGeometry x="637.5" y="470" width="40" height="40" as="geometry" />
        </mxCell>
        <mxCell id="KZa7RMUpzm1QHLMbFxHb-105" value="Mods" style="whiteSpace=wrap;html=1;aspect=fixed;rotation=-30;fontSize=12;fontFamily=Verdana;fontStyle=1;fontColor=#CCCCCC;fillColor=#333333;rounded=1;strokeColor=#1A1A1A;" parent="1" vertex="1">
          <mxGeometry x="449.5" y="517" width="40" height="40" as="geometry" />
        </mxCell>
        <mxCell id="KZa7RMUpzm1QHLMbFxHb-106" value="Right" style="whiteSpace=wrap;html=1;aspect=fixed;rotation=-15;fontSize=12;fontFamily=Verdana;fontStyle=1;fillColor=#333333;strokeColor=#1A1A1A;fontColor=#CCCCCC;rounded=1;" parent="1" vertex="1">
          <mxGeometry x="497.5" y="499" width="40" height="40" as="geometry" />
        </mxCell>
        <mxCell id="KZa7RMUpzm1QHLMbFxHb-107" value="&lt;b&gt;Hold tap&lt;br&gt;&lt;/b&gt;" style="rounded=0;whiteSpace=wrap;html=1;fontFamily=Verdana;fontSize=17;fontColor=#CCCCCC;fillColor=#333333;strokeColor=#1A1A1A;" parent="1" vertex="1">
          <mxGeometry x="308" y="320" width="210" height="30" as="geometry" />
        </mxCell>
        <mxCell id="yzxFREvm9_JoLdcJVpHR-2" value="" style="whiteSpace=wrap;html=1;aspect=fixed;fontSize=17;fontFamily=Verdana;fontStyle=1;fontColor=#CCCCCC;fillColor=#333333;rounded=1;strokeColor=#1A1A1A;" vertex="1" parent="1">
          <mxGeometry x="150" y="670" width="40" height="40" as="geometry" />
        </mxCell>
        <mxCell id="yzxFREvm9_JoLdcJVpHR-3" value="" style="whiteSpace=wrap;html=1;aspect=fixed;fontSize=17;fontFamily=Verdana;fontStyle=1;fontColor=#CCCCCC;fillColor=#333333;rounded=1;strokeColor=#1A1A1A;" vertex="1" parent="1">
          <mxGeometry x="190" y="645" width="40" height="40" as="geometry" />
        </mxCell>
        <mxCell id="yzxFREvm9_JoLdcJVpHR-4" value="" style="whiteSpace=wrap;html=1;aspect=fixed;fontSize=17;fontFamily=Verdana;fontStyle=1;fontColor=#CCCCCC;fillColor=#333333;rounded=1;strokeColor=#1A1A1A;" vertex="1" parent="1">
          <mxGeometry x="230" y="630" width="40" height="40" as="geometry" />
        </mxCell>
        <mxCell id="yzxFREvm9_JoLdcJVpHR-5" value="" style="whiteSpace=wrap;html=1;aspect=fixed;fontSize=17;fontFamily=Verdana;fontStyle=1;fontColor=#CCCCCC;fillColor=#333333;rounded=1;strokeColor=#1A1A1A;" vertex="1" parent="1">
          <mxGeometry x="270" y="645" width="40" height="40" as="geometry" />
        </mxCell>
        <mxCell id="yzxFREvm9_JoLdcJVpHR-6" value="" style="whiteSpace=wrap;html=1;aspect=fixed;fontSize=17;fontFamily=Verdana;fontStyle=1;fontColor=#CCCCCC;fillColor=#333333;rounded=1;strokeColor=#1A1A1A;" vertex="1" parent="1">
          <mxGeometry x="310" y="653" width="40" height="40" as="geometry" />
        </mxCell>
        <mxCell id="yzxFREvm9_JoLdcJVpHR-7" value="Shift" style="whiteSpace=wrap;html=1;aspect=fixed;fontSize=13;fontFamily=Verdana;fontStyle=1;fontColor=#CCCCCC;fillColor=#333333;rounded=1;strokeColor=#1A1A1A;" vertex="1" parent="1">
          <mxGeometry x="150" y="710" width="40" height="40" as="geometry" />
        </mxCell>
        <mxCell id="yzxFREvm9_JoLdcJVpHR-8" value="Alt" style="whiteSpace=wrap;html=1;aspect=fixed;fontSize=13;fontFamily=Verdana;fontStyle=1;fontColor=#CCCCCC;fillColor=#333333;rounded=1;strokeColor=#1A1A1A;" vertex="1" parent="1">
          <mxGeometry x="190" y="685" width="40" height="40" as="geometry" />
        </mxCell>
        <mxCell id="yzxFREvm9_JoLdcJVpHR-9" value="Ctrl" style="whiteSpace=wrap;html=1;aspect=fixed;fontSize=13;fontFamily=Verdana;fontStyle=1;fontColor=#CCCCCC;fillColor=#333333;rounded=1;strokeColor=#1A1A1A;" vertex="1" parent="1">
          <mxGeometry x="230" y="670" width="40" height="40" as="geometry" />
        </mxCell>
        <mxCell id="yzxFREvm9_JoLdcJVpHR-10" value="Mod" style="whiteSpace=wrap;html=1;aspect=fixed;fontSize=13;fontFamily=Verdana;fontStyle=1;fontColor=#CCCCCC;fillColor=#333333;rounded=1;strokeColor=#1A1A1A;" vertex="1" parent="1">
          <mxGeometry x="270" y="685" width="40" height="40" as="geometry" />
        </mxCell>
        <mxCell id="yzxFREvm9_JoLdcJVpHR-11" value="" style="whiteSpace=wrap;html=1;aspect=fixed;fontSize=17;fontFamily=Verdana;fontStyle=1;fontColor=#CCCCCC;fillColor=#333333;rounded=1;strokeColor=#1A1A1A;" vertex="1" parent="1">
          <mxGeometry x="310" y="693" width="40" height="40" as="geometry" />
        </mxCell>
        <mxCell id="yzxFREvm9_JoLdcJVpHR-12" value="" style="whiteSpace=wrap;html=1;aspect=fixed;fontSize=17;fontFamily=Verdana;fontStyle=1;fontColor=#CCCCCC;fillColor=#333333;rounded=1;strokeColor=#1A1A1A;" vertex="1" parent="1">
          <mxGeometry x="150" y="750" width="40" height="40" as="geometry" />
        </mxCell>
        <mxCell id="yzxFREvm9_JoLdcJVpHR-13" value="" style="whiteSpace=wrap;html=1;aspect=fixed;fontSize=17;fontFamily=Verdana;fontStyle=1;fontColor=#CCCCCC;fillColor=#333333;rounded=1;strokeColor=#1A1A1A;" vertex="1" parent="1">
          <mxGeometry x="190" y="725" width="40" height="40" as="geometry" />
        </mxCell>
        <mxCell id="yzxFREvm9_JoLdcJVpHR-14" value="" style="whiteSpace=wrap;html=1;aspect=fixed;fontSize=17;fontFamily=Verdana;fontStyle=1;fontColor=#CCCCCC;fillColor=#333333;rounded=1;strokeColor=#1A1A1A;" vertex="1" parent="1">
          <mxGeometry x="230" y="710" width="40" height="40" as="geometry" />
        </mxCell>
        <mxCell id="yzxFREvm9_JoLdcJVpHR-15" value="" style="whiteSpace=wrap;html=1;aspect=fixed;fontSize=11;fontFamily=Verdana;fontStyle=1;fontColor=#CCCCCC;fillColor=#333333;rounded=1;strokeColor=#1A1A1A;" vertex="1" parent="1">
          <mxGeometry x="270" y="725" width="40" height="40" as="geometry" />
        </mxCell>
        <mxCell id="yzxFREvm9_JoLdcJVpHR-16" value="" style="whiteSpace=wrap;html=1;aspect=fixed;fontSize=17;fontFamily=Verdana;fontStyle=1;fontColor=#CCCCCC;fillColor=#333333;rounded=1;strokeColor=#1A1A1A;" vertex="1" parent="1">
          <mxGeometry x="310" y="733" width="40" height="40" as="geometry" />
        </mxCell>
        <mxCell id="yzxFREvm9_JoLdcJVpHR-17" value="" style="whiteSpace=wrap;html=1;aspect=fixed;rotation=15;fontSize=16;fontFamily=Verdana;fontStyle=1;fillColor=#333333;strokeColor=#1A1A1A;fontColor=#CCCCCC;rounded=1;" vertex="1" parent="1">
          <mxGeometry x="290" y="779" width="40" height="40" as="geometry" />
        </mxCell>
        <mxCell id="yzxFREvm9_JoLdcJVpHR-18" value="" style="whiteSpace=wrap;html=1;aspect=fixed;rotation=30;fontSize=12;fontFamily=Verdana;fontStyle=1;fontColor=#CCCCCC;fillColor=#333333;rounded=1;strokeColor=#1A1A1A;" vertex="1" parent="1">
          <mxGeometry x="338" y="797" width="40" height="40" as="geometry" />
        </mxCell>
        <mxCell id="yzxFREvm9_JoLdcJVpHR-19" value="" style="whiteSpace=wrap;html=1;aspect=fixed;fontSize=17;fontFamily=Verdana;fontStyle=1;fontColor=#CCCCCC;fillColor=#333333;rounded=1;strokeColor=#1A1A1A;" vertex="1" parent="1">
          <mxGeometry x="478" y="653" width="40" height="40" as="geometry" />
        </mxCell>
        <mxCell id="yzxFREvm9_JoLdcJVpHR-20" value="" style="whiteSpace=wrap;html=1;aspect=fixed;fontSize=17;fontFamily=Verdana;fontStyle=1;fontColor=#CCCCCC;fillColor=#333333;rounded=1;strokeColor=#1A1A1A;" vertex="1" parent="1">
          <mxGeometry x="518" y="645" width="40" height="40" as="geometry" />
        </mxCell>
        <mxCell id="yzxFREvm9_JoLdcJVpHR-21" value="" style="whiteSpace=wrap;html=1;aspect=fixed;fontSize=17;fontFamily=Verdana;fontStyle=1;fontColor=#CCCCCC;fillColor=#333333;rounded=1;strokeColor=#1A1A1A;" vertex="1" parent="1">
          <mxGeometry x="558" y="630" width="40" height="40" as="geometry" />
        </mxCell>
        <mxCell id="yzxFREvm9_JoLdcJVpHR-22" value="" style="whiteSpace=wrap;html=1;aspect=fixed;fontSize=17;fontFamily=Verdana;fontStyle=1;fontColor=#CCCCCC;fillColor=#333333;rounded=1;strokeColor=#1A1A1A;" vertex="1" parent="1">
          <mxGeometry x="598" y="645" width="40" height="40" as="geometry" />
        </mxCell>
        <mxCell id="yzxFREvm9_JoLdcJVpHR-23" value="" style="whiteSpace=wrap;html=1;aspect=fixed;fontSize=17;fontFamily=Verdana;fontStyle=1;fontColor=#CCCCCC;fillColor=#333333;rounded=1;strokeColor=#1A1A1A;" vertex="1" parent="1">
          <mxGeometry x="638" y="670" width="40" height="40" as="geometry" />
        </mxCell>
        <mxCell id="yzxFREvm9_JoLdcJVpHR-24" value="" style="whiteSpace=wrap;html=1;aspect=fixed;fontSize=17;fontFamily=Verdana;fontStyle=1;fontColor=#CCCCCC;fillColor=#333333;rounded=1;strokeColor=#1A1A1A;" vertex="1" parent="1">
          <mxGeometry x="478" y="693" width="40" height="40" as="geometry" />
        </mxCell>
        <mxCell id="yzxFREvm9_JoLdcJVpHR-25" value="Mod" style="whiteSpace=wrap;html=1;aspect=fixed;fontSize=13;fontFamily=Verdana;fontStyle=1;fontColor=#CCCCCC;fillColor=#333333;rounded=1;strokeColor=#1A1A1A;" vertex="1" parent="1">
          <mxGeometry x="518" y="685" width="40" height="40" as="geometry" />
        </mxCell>
        <mxCell id="yzxFREvm9_JoLdcJVpHR-26" value="Ctrl" style="whiteSpace=wrap;html=1;aspect=fixed;fontSize=13;fontFamily=Verdana;fontStyle=1;fontColor=#CCCCCC;fillColor=#333333;rounded=1;strokeColor=#1A1A1A;" vertex="1" parent="1">
          <mxGeometry x="558" y="670" width="40" height="40" as="geometry" />
        </mxCell>
        <mxCell id="yzxFREvm9_JoLdcJVpHR-27" value="Alt" style="whiteSpace=wrap;html=1;aspect=fixed;fontSize=13;fontFamily=Verdana;fontStyle=1;fontColor=#CCCCCC;fillColor=#333333;rounded=1;strokeColor=#1A1A1A;" vertex="1" parent="1">
          <mxGeometry x="598" y="685" width="40" height="40" as="geometry" />
        </mxCell>
        <mxCell id="yzxFREvm9_JoLdcJVpHR-28" value="Shift" style="whiteSpace=wrap;html=1;aspect=fixed;fontSize=13;fontFamily=Verdana;fontStyle=1;fontColor=#CCCCCC;fillColor=#333333;rounded=1;strokeColor=#1A1A1A;" vertex="1" parent="1">
          <mxGeometry x="638" y="710" width="40" height="40" as="geometry" />
        </mxCell>
        <mxCell id="yzxFREvm9_JoLdcJVpHR-29" value="" style="whiteSpace=wrap;html=1;aspect=fixed;fontSize=17;fontFamily=Verdana;fontStyle=1;fontColor=#CCCCCC;fillColor=#333333;rounded=1;strokeColor=#1A1A1A;" vertex="1" parent="1">
          <mxGeometry x="478" y="733" width="40" height="40" as="geometry" />
        </mxCell>
        <mxCell id="yzxFREvm9_JoLdcJVpHR-30" value="" style="whiteSpace=wrap;html=1;aspect=fixed;fontSize=11;fontFamily=Verdana;fontStyle=1;fontColor=#CCCCCC;fillColor=#333333;rounded=1;strokeColor=#1A1A1A;" vertex="1" parent="1">
          <mxGeometry x="518" y="725" width="40" height="40" as="geometry" />
        </mxCell>
        <mxCell id="yzxFREvm9_JoLdcJVpHR-31" value="" style="whiteSpace=wrap;html=1;aspect=fixed;fontSize=17;fontFamily=Verdana;fontStyle=1;fontColor=#CCCCCC;fillColor=#333333;rounded=1;strokeColor=#1A1A1A;" vertex="1" parent="1">
          <mxGeometry x="558" y="710" width="40" height="40" as="geometry" />
        </mxCell>
        <mxCell id="yzxFREvm9_JoLdcJVpHR-32" value="" style="whiteSpace=wrap;html=1;aspect=fixed;fontSize=17;fontFamily=Verdana;fontStyle=1;fontColor=#CCCCCC;fillColor=#333333;rounded=1;strokeColor=#1A1A1A;" vertex="1" parent="1">
          <mxGeometry x="598" y="725" width="40" height="40" as="geometry" />
        </mxCell>
        <mxCell id="yzxFREvm9_JoLdcJVpHR-33" value="" style="whiteSpace=wrap;html=1;aspect=fixed;fontSize=17;fontFamily=Verdana;fontStyle=1;fontColor=#CCCCCC;fillColor=#333333;rounded=1;strokeColor=#1A1A1A;" vertex="1" parent="1">
          <mxGeometry x="638" y="750" width="40" height="40" as="geometry" />
        </mxCell>
        <mxCell id="yzxFREvm9_JoLdcJVpHR-34" value="" style="whiteSpace=wrap;html=1;aspect=fixed;rotation=-30;fontSize=17;fontFamily=Verdana;fontStyle=1;fontColor=#CCCCCC;fillColor=#333333;rounded=1;strokeColor=#1A1A1A;" vertex="1" parent="1">
          <mxGeometry x="450" y="797" width="40" height="40" as="geometry" />
        </mxCell>
        <mxCell id="yzxFREvm9_JoLdcJVpHR-35" value="" style="whiteSpace=wrap;html=1;aspect=fixed;rotation=-15;fontSize=12;fontFamily=Verdana;fontStyle=1;fillColor=#333333;strokeColor=#1A1A1A;fontColor=#CCCCCC;rounded=1;" vertex="1" parent="1">
          <mxGeometry x="498" y="779" width="40" height="40" as="geometry" />
        </mxCell>
        <mxCell id="yzxFREvm9_JoLdcJVpHR-36" value="&lt;b&gt;Mods&lt;br&gt;&lt;/b&gt;" style="rounded=0;whiteSpace=wrap;html=1;fontFamily=Verdana;fontSize=17;fontColor=#CCCCCC;fillColor=#333333;strokeColor=#1A1A1A;" vertex="1" parent="1">
          <mxGeometry x="308.5" y="600" width="210" height="30" as="geometry" />
        </mxCell>
      </root>
    </mxGraphModel>
  </diagram>
</mxfile>
